<svg xmlns="http://www.w3.org/2000/svg" width="600" height="400" viewBox="0 0 600 400">
  <defs>
    <linearGradient id="gradient1" x1="0%" y1="0%" x2="100%" y2="100%">
      <stop offset="0%" stop-color="#1ed760" stop-opacity="0.3"/>
      <stop offset="100%" stop-color="#3057e1" stop-opacity="0.3"/>
    </linearGradient>
    <linearGradient id="gradient2" x1="0%" y1="0%" x2="100%" y2="100%">
      <stop offset="0%" stop-color="#1ed760" stop-opacity="0.7"/>
      <stop offset="100%" stop-color="#1ed760" stop-opacity="0.7"/>
    </linearGradient>
  </defs>
  
  <!-- Background -->
  <rect width="600" height="400" rx="20" fill="#181818"/>
  
  <!-- Music Player Shape -->
  <rect x="50" y="50" width="500" height="300" rx="15" fill="url(#gradient1)"/>
  
  <!-- Music Controls -->
  <circle cx="300" cy="250" r="40" fill="url(#gradient2)"/>
  <polygon points="290,235 290,265 320,250" fill="#181818"/>
  
  <!-- Music Waves -->
  <rect x="100" y="180" width="10" height="40" rx="5" fill="#1ed760"/>
  <rect x="120" y="170" width="10" height="60" rx="5" fill="#1ed760"/>
  <rect x="140" y="160" width="10" height="80" rx="5" fill="#1ed760"/>
  <rect x="160" y="150" width="10" height="100" rx="5" fill="#1ed760"/>
  <rect x="180" y="170" width="10" height="60" rx="5" fill="#1ed760"/>
  
  <rect x="410" y="180" width="10" height="40" rx="5" fill="#1ed760"/>
  <rect x="430" y="170" width="10" height="60" rx="5" fill="#1ed760"/>
  <rect x="450" y="160" width="10" height="80" rx="5" fill="#1ed760"/>
  <rect x="470" y="150" width="10" height="100" rx="5" fill="#1ed760"/>
  <rect x="490" y="170" width="10" height="60" rx="5" fill="#1ed760"/>
  
  <!-- Music Notes -->
  <circle cx="150" cy="100" r="15" fill="#1ed760"/>
  <path d="M150,85 L150,120 L180,115 L180,80 Z" fill="#1ed760"/>
  
  <circle cx="450" cy="120" r="15" fill="#1ed760"/>
  <path d="M450,105 L450,140 L420,135 L420,100 Z" fill="#1ed760"/>
</svg>